<svg width="151" height="44" viewBox="0 0 151 44" fill="none" xmlns="http://www.w3.org/2000/svg">
<path d="M10.6083 36.25C9.84305 36.25 9.1638 35.9993 8.57058 35.4979C7.97736 34.9965 7.61425 34.3632 7.48125 33.5979L5.06666 19.1104C4.9875 18.6354 5.09991 18.2069 5.40391 17.8248C5.70791 17.4426 6.11008 17.2511 6.61041 17.25H31.3896C31.891 17.25 32.2937 17.4416 32.5977 17.8248C32.9017 18.2079 33.0136 18.6365 32.9333 19.1104L30.5187 33.5979C30.3868 34.3632 30.0242 34.9965 29.431 35.4979C28.8378 35.9993 28.158 36.25 27.3917 36.25H10.6083ZM8.55 20.4167L10.5687 33.0833H27.4312L29.45 20.4167H8.55ZM15.8333 26.75H22.1667C22.6153 26.75 22.9916 26.598 23.2956 26.294C23.5996 25.99 23.7511 25.6142 23.75 25.1667C23.7489 24.7191 23.5969 24.3433 23.294 24.0393C22.9911 23.7353 22.6153 23.5833 22.1667 23.5833H15.8333C15.3847 23.5833 15.0089 23.7353 14.706 24.0393C14.4031 24.3433 14.2511 24.7191 14.25 25.1667C14.2489 25.6142 14.4009 25.9905 14.706 26.2956C15.0111 26.6006 15.3868 26.7521 15.8333 26.75ZM9.5 15.6667C9.05139 15.6667 8.67561 15.5147 8.37266 15.2107C8.06972 14.9067 7.91772 14.5309 7.91666 14.0833C7.91561 13.6358 8.06761 13.26 8.37266 12.956C8.67772 12.652 9.0535 12.5 9.5 12.5H28.5C28.9486 12.5 29.3249 12.652 29.6289 12.956C29.9329 13.26 30.0844 13.6358 30.0833 14.0833C30.0823 14.5309 29.9303 14.9072 29.6273 15.2122C29.3244 15.5173 28.9486 15.6688 28.5 15.6667H9.5ZM12.6667 10.9167C12.2181 10.9167 11.8423 10.7647 11.5393 10.4607C11.2364 10.1567 11.0844 9.78089 11.0833 9.33333C11.0823 8.88578 11.2343 8.51 11.5393 8.206C11.8444 7.902 12.2202 7.75 12.6667 7.75H25.3333C25.7819 7.75 26.1582 7.902 26.4622 8.206C26.7662 8.51 26.9177 8.88578 26.9167 9.33333C26.9156 9.78089 26.7636 10.1572 26.4607 10.4622C26.1577 10.7673 25.7819 10.9188 25.3333 10.9167H12.6667Z" fill="black"/>
<path d="M54.552 21.168H63.608V33.008C62.4133 33.4133 61.1653 33.7333 59.864 33.968C58.584 34.2027 57.1227 34.32 55.48 34.32C53.2187 34.32 51.288 33.872 49.688 32.976C48.1093 32.08 46.904 30.7573 46.072 29.008C45.2613 27.2587 44.856 25.104 44.856 22.544C44.856 20.1547 45.3147 18.0853 46.232 16.336C47.1707 14.5867 48.5253 13.232 50.296 12.272C52.0667 11.312 54.232 10.832 56.792 10.832C58.008 10.832 59.2027 10.96 60.376 11.216C61.5493 11.472 62.616 11.8133 63.576 12.24L61.976 16.112C61.272 15.7493 60.472 15.4507 59.576 15.216C58.68 14.9813 57.7413 14.864 56.76 14.864C55.352 14.864 54.1253 15.184 53.08 15.824C52.056 16.464 51.256 17.3707 50.68 18.544C50.1253 19.696 49.848 21.0613 49.848 22.64C49.848 24.1333 50.0507 25.456 50.456 26.608C50.8613 27.76 51.5013 28.6667 52.376 29.328C53.2507 29.968 54.392 30.288 55.8 30.288C56.2693 30.288 56.6747 30.2773 57.016 30.256C57.3787 30.2133 57.7093 30.1707 58.008 30.128C58.3067 30.064 58.5947 30.0107 58.872 29.968V25.2H54.552V21.168ZM82.5083 27.664C82.5083 29.008 82.1776 30.1813 81.5163 31.184C80.8549 32.1867 79.8949 32.9653 78.6363 33.52C77.3989 34.0533 75.8843 34.32 74.0923 34.32C73.3029 34.32 72.5243 34.2667 71.7563 34.16C71.0096 34.0533 70.2843 33.904 69.5803 33.712C68.8976 33.4987 68.2469 33.2427 67.6283 32.944V28.432C68.7163 28.9013 69.8363 29.3387 70.9883 29.744C72.1616 30.128 73.3243 30.32 74.4763 30.32C75.2656 30.32 75.8949 30.2133 76.3643 30C76.8549 29.7867 77.2069 29.4987 77.4203 29.136C77.6549 28.7733 77.7723 28.3573 77.7723 27.888C77.7723 27.312 77.5696 26.8213 77.1643 26.416C76.7803 26.0107 76.2576 25.6373 75.5963 25.296C74.9349 24.9333 74.1776 24.5493 73.3243 24.144C72.7909 23.888 72.2149 23.5893 71.5963 23.248C70.9776 22.8853 70.3803 22.448 69.8043 21.936C69.2496 21.4027 68.7909 20.7627 68.4283 20.016C68.0656 19.2693 67.8843 18.3733 67.8843 17.328C67.8843 15.9627 68.1936 14.8 68.8123 13.84C69.4523 12.8587 70.3483 12.112 71.5003 11.6C72.6736 11.088 74.0496 10.832 75.6283 10.832C76.8229 10.832 77.9536 10.9707 79.0203 11.248C80.1083 11.5253 81.2389 11.92 82.4123 12.432L80.8443 16.208C79.7989 15.7813 78.8603 15.4507 78.0283 15.216C77.1963 14.9813 76.3429 14.864 75.4683 14.864C74.8709 14.864 74.3589 14.96 73.9323 15.152C73.5056 15.344 73.1749 15.6107 72.9403 15.952C72.7269 16.2933 72.6203 16.6987 72.6203 17.168C72.6203 17.7013 72.7803 18.16 73.1003 18.544C73.4203 18.9067 73.9003 19.2587 74.5403 19.6C75.1803 19.9413 75.9803 20.3467 76.9403 20.816C78.1136 21.3707 79.1056 21.9467 79.9163 22.544C80.7483 23.1413 81.3883 23.8453 81.8363 24.656C82.2843 25.4667 82.5083 26.4693 82.5083 27.664ZM93.6373 30.512C94.1706 30.512 94.6826 30.4587 95.1733 30.352C95.6639 30.2453 96.1546 30.1173 96.6453 29.968V33.52C96.1333 33.7333 95.4933 33.9147 94.7253 34.064C93.9786 34.2347 93.1573 34.32 92.2613 34.32C91.2159 34.32 90.2773 34.1493 89.4453 33.808C88.6346 33.4667 87.9839 32.88 87.4933 32.048C87.0239 31.1947 86.7893 30.0213 86.7893 28.528V20.112H84.5173V18.096L87.1413 16.496L88.5173 12.816H91.5573V16.528H96.4533V20.112H91.5573V28.528C91.5573 29.1893 91.7493 29.6907 92.1333 30.032C92.5173 30.352 93.0186 30.512 93.6373 30.512ZM116.024 25.232C116.024 26.6827 115.822 27.9733 115.416 29.104C115.032 30.2347 114.467 31.1947 113.72 31.984C112.995 32.752 112.11 33.3387 111.064 33.744C110.019 34.128 108.835 34.32 107.512 34.32C106.296 34.32 105.166 34.128 104.12 33.744C103.096 33.3387 102.211 32.752 101.464 31.984C100.718 31.1947 100.131 30.2347 99.7043 29.104C99.2989 27.9733 99.0963 26.6827 99.0963 25.232C99.0963 23.2907 99.4376 21.6587 100.12 20.336C100.803 18.992 101.784 17.968 103.064 17.264C104.344 16.56 105.859 16.208 107.608 16.208C109.251 16.208 110.702 16.56 111.96 17.264C113.219 17.968 114.211 18.992 114.936 20.336C115.662 21.6587 116.024 23.2907 116.024 25.232ZM103.96 25.232C103.96 26.384 104.078 27.3547 104.312 28.144C104.568 28.912 104.963 29.4987 105.496 29.904C106.03 30.288 106.723 30.48 107.576 30.48C108.43 30.48 109.112 30.288 109.624 29.904C110.158 29.4987 110.542 28.912 110.776 28.144C111.032 27.3547 111.16 26.384 111.16 25.232C111.16 24.08 111.032 23.12 110.776 22.352C110.542 21.584 110.158 21.008 109.624 20.624C109.091 20.24 108.398 20.048 107.544 20.048C106.286 20.048 105.368 20.4853 104.792 21.36C104.238 22.2133 103.96 23.504 103.96 25.232ZM129.725 16.208C129.959 16.208 130.237 16.2187 130.557 16.24C130.877 16.2613 131.133 16.2933 131.325 16.336L130.973 20.816C130.823 20.7733 130.599 20.7413 130.301 20.72C130.023 20.6773 129.778 20.656 129.565 20.656C128.946 20.656 128.349 20.7413 127.773 20.912C127.197 21.0613 126.674 21.3067 126.205 21.648C125.757 21.9893 125.394 22.448 125.117 23.024C124.861 23.5787 124.733 24.272 124.733 25.104V34H119.965V16.528H123.581L124.285 19.472H124.509C124.85 18.8747 125.277 18.3307 125.789 17.84C126.301 17.3493 126.887 16.9547 127.549 16.656C128.231 16.3573 128.957 16.208 129.725 16.208ZM141.071 16.208C142.692 16.208 144.079 16.5173 145.231 17.136C146.404 17.7547 147.311 18.6507 147.951 19.824C148.591 20.9973 148.911 22.4373 148.911 24.144V26.448H137.647C137.69 27.792 138.084 28.848 138.831 29.616C139.599 30.384 140.655 30.768 141.999 30.768C143.13 30.768 144.154 30.6613 145.071 30.448C145.988 30.2133 146.938 29.8613 147.919 29.392V33.072C147.066 33.4987 146.159 33.808 145.199 34C144.26 34.2133 143.119 34.32 141.775 34.32C140.026 34.32 138.479 34 137.135 33.36C135.791 32.6987 134.735 31.7067 133.967 30.384C133.199 29.0613 132.815 27.3973 132.815 25.392C132.815 23.344 133.156 21.648 133.839 20.304C134.543 18.9387 135.514 17.9147 136.751 17.232C137.988 16.5493 139.428 16.208 141.071 16.208ZM141.103 19.6C140.186 19.6 139.418 19.8987 138.799 20.496C138.202 21.0933 137.85 22.0213 137.743 23.28H144.431C144.431 22.576 144.303 21.9467 144.047 21.392C143.812 20.8373 143.45 20.4 142.959 20.08C142.468 19.76 141.85 19.6 141.103 19.6Z" fill="black"/>
</svg>
